<svg width="45" height="60" viewBox="0 0 45 70" fill="none" xmlns="http://www.w3.org/2000/svg">
<path d="M40.2273 36.4597L14.2297 40.2118L10.1734 20.044" stroke="#7C7373" stroke-width="1.5" stroke-linecap="round" stroke-linejoin="round"/>
<path d="M11.591 25.006L41.5 24.5" stroke="#7C7373" stroke-width="1.5" stroke-linecap="round" stroke-linejoin="round"/>
<path d="M16.9557 42.1979H37.3026" stroke="#7C7373" stroke-width="1.5" stroke-linecap="round" stroke-linejoin="round"/>
<line x1="0.75" y1="-0.75" x2="12.1096" y2="-0.75" transform="matrix(0.175803 -0.984425 0.988118 0.153696 40.2273 37.193)" stroke="#7C7373" stroke-width="1.5" stroke-linecap="round" stroke-linejoin="round"/>
<path d="M4.52153 20.044H10.1734" stroke="#7C7373" stroke-width="1.5" stroke-linecap="round" stroke-linejoin="round"/>
<path d="M12.9545 31.3485L40.5 30" stroke="#7C7373" stroke-width="1.5" stroke-linecap="round" stroke-linejoin="round"/>
<path d="M18.4091 25.2151L19.7727 38.8449" stroke="#7C7373" stroke-width="1.5" stroke-linecap="round" stroke-linejoin="round"/>
<path d="M24.5455 25.2151L25.2273 38.1634" stroke="#7C7373" stroke-width="1.5" stroke-linecap="round" stroke-linejoin="round"/>
<path d="M30.5 25L30 37.482" stroke="#7C7373" stroke-width="1.5" stroke-linecap="round" stroke-linejoin="round"/>
<path d="M36.8182 25.2151L34.7727 36.8005" stroke="#7C7373" stroke-width="1.5" stroke-linecap="round" stroke-linejoin="round"/>
<path d="M21.8577 47.0105C21.8577 48.5876 20.4718 49.9528 18.6513 49.9528C16.8309 49.9528 15.445 48.5876 15.445 47.0105C15.445 45.4335 16.8309 44.0682 18.6513 44.0682C20.4718 44.0682 21.8577 45.4335 21.8577 47.0105Z" stroke="#7C7373" stroke-width="1.5"/>
<path d="M35.799 47.3077C35.799 48.8847 34.4132 50.25 32.5927 50.25C30.7723 50.25 29.3864 48.8847 29.3864 47.3077C29.3864 45.7306 30.7723 44.3654 32.5927 44.3654C34.4132 44.3654 35.799 45.7306 35.799 47.3077Z" stroke="#7C7373" stroke-width="1.5"/>
<path d="M14.9955 40.9783C15.2202 42.0488 15.7949 42.1559 16.9557 42.1979" stroke="#7C7373" stroke-width="1.5" stroke-linecap="round" stroke-linejoin="round"/>
<path d="M44.25 39.1857C44.25 41.9703 41.9914 44.2284 39.2045 44.2284C36.4177 44.2284 34.1591 41.9703 34.1591 39.1857C34.1591 36.401 36.4177 34.143 39.2045 34.143C41.9914 34.143 44.25 36.401 44.25 39.1857Z" fill="#DA6950" stroke="#DA6950" stroke-width="1.5"/>
<path d="M39.2045 36.119V42.2524" stroke="white" stroke-width="2" stroke-linecap="round"/>
<path d="M39.2045 36.119V42.2524" stroke="white" stroke-width="2" stroke-linecap="round"/>
<path d="M39.2045 36.119V42.2524" stroke="white" stroke-width="2" stroke-linecap="round"/>
<path d="M42.2722 38.8449L36.1364 38.9242" stroke="white" stroke-width="2" stroke-linecap="round"/>
<path d="M42.2722 38.8449L36.1364 38.9242" stroke="white" stroke-width="2" stroke-linecap="round"/>
<path d="M42.2722 38.8449L36.1364 38.9242" stroke="white" stroke-width="2" stroke-linecap="round"/>
</svg>
