<svg width="500" height="300" viewBox="0 0 440 250" fill="none" xmlns="http://www.w3.org/2000/svg">
<rect x="389.634" y="119.012" width="48.623" height="0.671987" transform="rotate(19.195 389.634 119.012)" fill="#259A6A"/>
<circle cx="27" cy="25" r="5" fill="white"/>
<circle cx="42" cy="25" r="5" fill="white"/>
<circle cx="57" cy="25" r="5" fill="white"/>
<rect x="8.24355" y="7.54102" width="309.18" height="189.602" fill="#CAE2F0"/>
<rect x="0.163971" y="3.05176e-05" width="325.34" height="204.145" rx="11" fill="#8A7E7E" fill-opacity="0.62"/>
<rect x="13.63" y="15.6207" width="296.253" height="172.904" rx="18" fill="white"/>
<rect x="13.0913" y="13.4661" width="296.792" height="16.1593" rx="8.07963" fill="#DA6950"/>
<rect x="13.0913" y="21.5457" width="296.792" height="13.466" fill="#DA6950"/>
<rect x="25.4801" y="52.2482" width="56.5574" height="56.5574" rx="21" fill="#F4F4F4"/>
<rect x="139.133" y="52.2482" width="56.5574" height="56.5574" rx="21" fill="#F4F4F4"/>
<rect x="133" y="123" width="56.5574" height="56.5574" rx="21" fill="#F4F4F4"/>
<rect x="25.4801" y="123.888" width="60.3279" height="56.5574" rx="21" fill="#F4F4F4"/>
<path d="M44.5542 68.2432L65.9662 69.8209L67.7693 96.4168H43.4273L44.5542 68.2432Z" fill="#EAB959"/>
<path d="M42.9765 65.5386L50.1889 70.4971L40.0464 80.865L34.6371 75.2303L42.9765 65.5386Z" fill="#EAB959"/>
<path d="M67.9948 65.9894L76.3342 75.0049L71.3756 80.8651L58.0777 69.1448L67.9948 65.9894Z" fill="#EAB959"/>
<path d="M42.9765 65.5385L50.4143 64.637L55.5983 69.5956L48.3858 70.4971L42.9765 65.5385Z" fill="#EAB959"/>
<path d="M55.6084 69.5955L60.7924 64.637L67.9946 65.9893L63.497 72.751L55.6084 69.5955Z" fill="#EAB959"/>
<circle cx="167.977" cy="81.0395" r="15.3252" fill="#C76D3D"/>
<circle cx="166.309" cy="81.0395" r="15.3252" fill="#D67F4F"/>
<path d="M164.814 69.4674H167.038V73.1121L163.748 71.9638L164.814 69.4674Z" fill="#8E4D29"/>
<path d="M164.168 69.4674H166.444V72.9202L163.077 71.8324L164.168 69.4674Z" fill="#9D552E"/>
<path d="M178.235 75.3125L179.545 77.1104L176.599 79.2563L175.59 75.9208L178.235 75.3125Z" fill="#8E4D29"/>
<path d="M177.854 74.7899L179.195 76.6296L176.404 78.6626L175.301 75.3008L177.854 74.7899Z" fill="#9D552E"/>
<path d="M156.646 76.1396H158.29V78.8335L155.858 77.9847L156.646 76.1396Z" fill="#8E4D29"/>
<path d="M156.168 76.1396H157.851V78.6917L155.362 77.8876L156.168 76.1396Z" fill="#9D552E"/>
<path d="M166.542 80.193L168.042 79.5197L169.145 81.9773L166.579 82.199L166.542 80.193Z" fill="#8E4D29"/>
<path d="M166.106 80.3887L167.641 79.6998L168.686 82.028L166.086 82.3136L166.106 80.3887Z" fill="#9D552E"/>
<path d="M168.103 92.3114L166.58 92.9314L165.564 90.4364L168.137 90.3054L168.103 92.3114Z" fill="#8E4D29"/>
<path d="M168.546 92.1311L166.988 92.7655L166.025 90.4019L168.633 90.2082L168.546 92.1311Z" fill="#9D552E"/>
<path d="M173.216 85.1951L173.783 83.6519L176.312 84.5809L174.677 86.5709L173.216 85.1951Z" fill="#8E4D29"/>
<path d="M173.052 85.6437L173.632 84.0646L176.027 84.9447L174.414 87.0032L173.052 85.6437Z" fill="#9D552E"/>
<path d="M157.777 84.6884H160.067V88.4415L156.679 87.259L157.777 84.6884Z" fill="#8E4D29"/>
<path d="M157.111 84.6884H159.455V88.244L155.988 87.1237L157.111 84.6884Z" fill="#9D552E"/>
<line x1="157.741" y1="73.3245" x2="159.636" y2="73.135" stroke="#9D552E" stroke-width="4" stroke-linecap="round"/>
<line x1="173.588" y1="92.0901" x2="175.483" y2="91.9006" stroke="#9D552E" stroke-width="4" stroke-linecap="round"/>
<line x1="162.164" y1="87.2384" x2="163.959" y2="88.5208" stroke="#9D552E" stroke-width="4" stroke-linecap="round"/>
<circle cx="162.556" cy="76.8694" r="0.521266" fill="#9D552E"/>
<circle cx="172.772" cy="71.8652" r="0.521266" fill="#9D552E"/>
<circle cx="161.513" cy="92.5073" r="0.521266" fill="#9D552E"/>
<circle cx="172.772" cy="80.414" r="0.521266" fill="#9D552E"/>
<circle cx="160.054" cy="91.4648" r="0.521266" fill="#9D552E"/>
<rect x="157.121" y="133" width="11.6347" height="5.81733" fill="#5EA4E6"/>
<rect x="153" y="144.15" width="19.3911" height="24.7237" fill="#5EA4E6"/>
<path d="M157.199 138.09H168.686L172.391 144.15H153L157.199 138.09Z" fill="#5EA4E6"/>
<circle cx="156.394" cy="169.358" r="3.39344" fill="#5EA4E6"/>
<circle cx="162.938" cy="169.358" r="3.39344" fill="#5EA4E6"/>
<circle cx="168.998" cy="169.358" r="3.39344" fill="#5EA4E6"/>
<path d="M165.119 154.828C165.119 156.695 163.6 158.208 161.726 158.208C159.852 158.208 158.333 156.695 158.333 154.828C158.333 152.962 161.141 147.564 161.726 147.059C162.35 147.525 165.119 152.962 165.119 154.828Z" fill="#C4C4C4"/>
<path d="M167.543 159.045C167.543 159.654 167.055 160.148 166.453 160.148C165.85 160.148 165.362 159.654 165.362 159.045C165.362 158.437 166.265 156.676 166.453 156.512C166.653 156.664 167.543 158.437 167.543 159.045Z" fill="#C4C4C4"/>
<rect x="85.8079" y="64.637" width="28.0094" height="7.54098" fill="#CAB596"/>
<line x1="85.8079" y1="75.4485" x2="123.513" y2="75.4485" stroke="#CAB596"/>
<line x1="85.8079" y1="82.9894" x2="123.513" y2="82.9894" stroke="#CAB596"/>
<line x1="85.8079" y1="89.4532" x2="123.513" y2="89.4532" stroke="#CAB596"/>
<line x1="85.8079" y1="95.9169" x2="123.513" y2="95.9169" stroke="#CAB596"/>
<rect x="89.0398" y="137.354" width="28.0094" height="7.54098" fill="#CAB596"/>
<line x1="89.0398" y1="148.165" x2="126.745" y2="148.165" stroke="#CAB596"/>
<line x1="89.0398" y1="155.706" x2="126.745" y2="155.706" stroke="#CAB596"/>
<line x1="89.0398" y1="162.17" x2="126.745" y2="162.17" stroke="#CAB596"/>
<line x1="89.0398" y1="168.633" x2="126.745" y2="168.633" stroke="#CAB596"/>
<rect x="202.154" y="62.4824" width="28.0094" height="7.54098" fill="#CAB596"/>
<line x1="202.154" y1="73.2939" x2="239.859" y2="73.2939" stroke="#CAB596"/>
<line x1="202.154" y1="80.8349" x2="239.859" y2="80.8349" stroke="#CAB596"/>
<line x1="202.154" y1="87.2986" x2="239.859" y2="87.2986" stroke="#CAB596"/>
<line x1="202.154" y1="93.7623" x2="239.859" y2="93.7623" stroke="#CAB596"/>
<rect x="195.691" y="140.047" width="28.0094" height="7.54098" fill="#CAB596"/>
<line x1="195.691" y1="150.858" x2="233.396" y2="150.858" stroke="#CAB596"/>
<line x1="195.691" y1="158.399" x2="233.396" y2="158.399" stroke="#CAB596"/>
<line x1="195.691" y1="164.863" x2="233.396" y2="164.863" stroke="#CAB596"/>
<line x1="195.691" y1="171.327" x2="233.396" y2="171.327" stroke="#CAB596"/>
<path d="M74.6784 152.132C74.6784 154.91 73.3474 157.586 70.9525 159.622C68.5575 161.658 65.2758 162.904 61.7659 163.109C58.256 163.315 54.7775 162.464 52.0286 160.729C49.2796 158.994 47.4635 156.503 46.9448 153.754C46.426 151.006 47.2429 148.205 49.2315 145.912C51.2202 143.62 54.2334 142.006 57.6667 141.394C61.0999 140.782 64.6991 141.219 67.742 142.615C70.7849 144.011 73.0463 146.264 74.0726 148.922L60.7354 152.132H74.6784Z" fill="#2C4D6B"/>
<path d="M50.7216 152.496L37.4703 162.658L37.0115 142.962L50.7216 152.496Z" fill="#2C4D6B"/>
<line x1="62.5566" y1="144.44" x2="65.125" y2="147.008" stroke="white"/>
<line x1="65.1079" y1="145.163" x2="62.5394" y2="147.498" stroke="white"/>
<path d="M300 64.5C300 67.0286 295.9 67.9452 291.735 67.9452C286.735 102.445 276.689 73.4804 284.235 71.9452C291.338 70.5 293 56 298 57.5C311.735 44.6042 300 61.9714 300 64.5Z" fill="#4C3A2F"/>
<path d="M292.884 77.5672C292.233 77.2979 287.767 91.5719 287.767 91.5719C285.612 91.3026 282.537 89.3293 282.537 84.5696C282.537 79.8098 286.186 70.94 287.376 70.94C288.335 69.3241 305.272 60.3307 292.884 77.5672Z" fill="#4C3A2F"/>
<path d="M306.007 68.8843C306.007 70.0743 306.272 80.0361 304.12 78.5C306.007 79.308 297.963 77.0773 295 76C273.993 90.0047 300.544 61.3433 302.775 61.3433C305.657 62.69 304.321 66.0701 306.007 68.8843Z" fill="#4C3A2F"/>
<path d="M312.971 57.0988C311.893 58.7147 307.046 60.8693 305.968 60.6C304.095 61.6773 304.891 68.4103 303.544 64.3705C303.544 63.3293 305.353 55.7522 307.584 55.7522C309.815 55.7522 313.509 55.7522 312.971 57.0988Z" fill="#4C3A2F"/>
<path d="M317.32 56.5C315.477 65.2755 306.077 59.0386 305 54.9988C302.576 69.0035 281.528 78.2732 291.5 68C294.766 64.6349 292 55.7273 302.5 50C308 47 319 48.5 317.32 56.5Z" fill="#4D3A2F"/>
<path d="M308.5 62C307.188 63.7688 303.5 68 300.613 60.6767C299.589 59.9168 299.822 57.867 301.135 56.0982C302.447 54.3294 304.341 53.5114 305.365 54.2712C306.389 55.031 309.812 60.2312 308.5 62Z" fill="#4C3A2F"/>
<rect x="306.776" y="60.9751" width="2.23657" height="1.12316" transform="rotate(122.751 306.776 60.9751)" fill="#4C3A2F"/>
<path d="M392.335 119.444L432.464 133.987L420.075 167.922L379.947 150.685L392.335 119.444Z" fill="#53B28B"/>
<path d="M392.335 109.748L438.659 125.369L435.427 135.603L389.642 119.713L392.335 109.748Z" fill="#53B28B"/>
<path d="M412.535 116.537L418.998 118.636L405.708 158.013L402.839 148.163L412.535 116.537Z" fill="#FFB53D"/>
<path d="M356.785 141.956L399.069 133.338L413.612 182.085L364.326 190.972L356.785 141.956Z" fill="#DF7078"/>
<path d="M366.179 144.64C359.446 125.518 380.542 116.216 385.22 139.894" stroke="#AF5B60" stroke-width="2"/>
<path d="M372.952 138.724C366.803 124.179 388.063 116.943 392.335 134.954" stroke="#AF5B60" stroke-width="2"/>
<circle cx="366.211" cy="144.918" r="1.3466" fill="#AF5B60"/>
<circle cx="385.602" cy="140.071" r="1.3466" fill="#AF5B60"/>
<line x1="2" y1="-2" x2="93.1991" y2="-2" transform="matrix(0.998403 0.056483 -0.0558413 0.99844 337.933 135.575)" stroke="#706F6F" stroke-width="4" stroke-linecap="round"/>
<line x1="1.5" y1="-1.5" x2="53.0276" y2="-1.5" transform="matrix(0.0754366 0.997151 -0.997085 0.0763012 359.318 135.575)" stroke="#706F6F" stroke-width="3" stroke-linecap="round"/>
<line x1="2" y1="-2" x2="25.5724" y2="-2" transform="matrix(0.301629 -0.953425 0.952421 0.304785 345.061 218.024)" stroke="#706F6F" stroke-width="4" stroke-linecap="round"/>
<path d="M352.596 192.552L417 181M350.5 198.5L414.904 186.948" stroke="#706F6F" stroke-width="3" stroke-linecap="round"/>
<line x1="1.5" y1="-1.5" x2="52.3008" y2="-1.5" transform="matrix(0.0331247 0.999451 -0.999439 0.0335061 370.011 135.575)" stroke="#706F6F" stroke-width="3" stroke-linecap="round"/>
<line x1="1.5" y1="-1.5" x2="49.5059" y2="-1.5" transform="matrix(-0.0931728 0.99565 -0.99555 -0.0942373 390.209 136.77)" stroke="#706F6F" stroke-width="3" stroke-linecap="round"/>
<line x1="1.5" y1="-1.5" x2="47.6036" y2="-1.5" transform="matrix(-0.169369 0.985553 -0.985225 -0.171264 401.495 136.173)" stroke="#706F6F" stroke-width="3" stroke-linecap="round"/>
<line x1="1.5" y1="-1.5" x2="45.5997" y2="-1.5" transform="matrix(-0.214412 0.976743 -0.976223 -0.216768 411.594 137.965)" stroke="#706F6F" stroke-width="3" stroke-linecap="round"/>
<path d="M422.54 139.757L410.5 181.5" stroke="#706F6F" stroke-width="3" stroke-linecap="round"/>
<line x1="1.5" y1="-1.5" x2="49.8952" y2="-1.5" transform="matrix(-0.0231167 0.999733 -0.999727 -0.0233831 380.11 135.575)" stroke="#706F6F" stroke-width="3" stroke-linecap="round"/>
<line x1="2" y1="-2" x2="70.4832" y2="-2" transform="matrix(0.999852 -0.0171897 0.0169939 0.999856 342.091 218.024)" stroke="#706F6F" stroke-width="4" stroke-linecap="round" stroke-linejoin="round"/>
<path d="M417.446 180.25L431.5 139" stroke="#706F6F" stroke-width="4" stroke-linecap="round"/>
<ellipse cx="397.634" cy="216.531" rx="6.83152" ry="6.87078" fill="#C4C4C4"/>
<ellipse cx="397.634" cy="216.531" rx="4.45534" ry="4.48094" fill="white"/>
<ellipse cx="356.645" cy="215.933" rx="6.83152" ry="6.87078" fill="#C4C4C4"/>
<ellipse cx="356.645" cy="215.933" rx="4.45534" ry="4.48094" fill="white"/>
<path d="M305.379 181.118C304.234 201.587 304.477 206.165 301.07 204.28C296.128 205.896 294.815 205.357 293.764 181.118C293.764 172.789 293.824 117.828 302.382 129.409C313.155 112.172 305.379 172.789 305.379 181.118Z" fill="#193375"/>
<path d="M291.071 151.762L299.15 126.715L301.844 156.61L294.033 161.996L291.071 151.762Z" fill="#193375"/>
<path d="M307.769 137.758C307.769 140.435 301.305 141.795 304.889 140.185C302.36 140.185 294.033 145.283 294.033 142.605C294.033 139.928 284.876 121.598 297.804 126.446C308.038 126.446 308.846 117.559 307.769 137.758Z" fill="#193375"/>
<path d="M296.951 204.28H303.19L302.876 207.512L296.951 207.015V204.28Z" fill="#F7ADA9"/>
<path d="M302.921 207.242C302.921 207.837 301.036 208.858 299.689 208.858C298.612 208.858 296.996 207.568 296.996 206.973C296.996 206.378 299.094 207.242 299.689 207.242C300.284 207.242 302.921 206.647 302.921 207.242Z" fill="#F7ADA9"/>
<path d="M316.239 215.989C316.239 218.377 309.53 217.173 305.159 217.173C300.789 217.173 294.344 218.756 294.872 213.45C295.03 211.858 295.399 205.254 300.147 208.826C309.908 206.438 317.558 214.397 316.239 215.989Z" fill="white"/>
<path d="M316.387 215.322C316.387 217.746 309.538 216.523 305.075 216.523C300.613 216.523 294.033 218.13 294.572 212.744C294.734 211.128 295.111 204.425 299.958 208.05C309.923 205.626 317.734 213.706 316.387 215.322Z" fill="#49300B"/>
<path d="M276.498 142.903C269.873 187.909 278.682 169.537 277.874 161.458C281.593 161.458 277.701 194.344 294.033 146.645C298.372 131.025 305.585 103.611 283.124 121.896C279.405 121.896 276.498 136.508 276.498 142.903Z" fill="#1B3881"/>
<path d="M275.989 178.994C263.6 194.615 257.675 202.425 263.869 194.076C261.787 194.076 254.443 197.943 254.443 194.076C254.443 190.209 269.597 167.413 271.68 167.413C282.991 159.064 295.649 162.565 275.989 178.994Z" fill="#1B3881"/>
<ellipse cx="280.029" cy="164.451" rx="3.23185" ry="4.57845" fill="#1B3881"/>
<path d="M312.081 119.146C311.542 123.186 311.563 125.071 309.926 125.071C308.29 125.071 305.617 121.526 305.617 119.146C305.617 116.766 299.42 103.554 307.23 113.249C308.846 113.788 312.081 113.759 312.081 119.146Z" fill="#C4C4C4"/>
<rect x="254" y="189" width="15.082" height="10.2342" fill="#ADA5A5"/>
<path d="M308.038 82.5468C307.514 82.8282 305.883 80.9309 305.075 80.1229C299.958 75.5445 305.834 78.8817 306.359 78.6003C306.883 78.319 307.769 74.7365 308.307 79.315C308.453 80.5498 308.54 82.2775 308.038 82.5468Z" fill="#F7ADA9"/>
<path d="M312.256 119.155C311.717 123.194 311.737 125.08 310.101 125.08C308.465 125.08 305.792 121.535 305.792 119.155C305.792 116.775 293.764 93.589 307.405 113.258C309.021 113.797 312.256 113.768 312.256 119.155Z" fill="#CF8080"/>
<path d="M350.808 191.742L336.736 119.444" stroke="#706F6F" stroke-width="4" stroke-linecap="round"/>
<path d="M339.01 120.183C339.01 121.819 338.073 124.022 336.586 124.022C335.099 124.022 333.126 121.819 333.126 120.183C333.126 118.547 332.944 116.751 334.431 116.751C335.919 116.751 339.777 118.636 339.01 120.183Z" fill="#F7ADA9"/>
<rect x="299.689" y="80.123" width="4.30913" height="4.84778" fill="#EF9034"/>
<rect x="311.539" y="100.591" width="4.30913" height="8.07963" fill="#F89FA3"/>
<path d="M315.85 100.591C315.826 101.037 314.588 102.207 313.696 102.207C312.803 102.207 312.08 101.845 312.08 101.399C312.349 101.846 309.925 99.7834 313.696 99.7834C314.588 99.7834 316.389 90.6265 315.85 100.591Z" fill="#F89FA3"/>
<path d="M310.651 126.672C310.651 133.068 299.857 130.585 291.508 129.508C280.735 126.007 279.991 127.623 281.338 122.775C282.146 116.042 289.032 76.1827 292.854 81.0305C289.084 80.2225 311.27 119.713 310.651 126.672Z" fill="#CF8080"/>
<path d="M316.107 89.7797C316.107 96.6219 315.258 100.553 311.539 100.553C307.821 100.553 312.374 94.094 307.526 86.0144C309.95 78.2041 305.935 76.0444 309.654 76.0444C313.372 76.0444 316.107 82.9376 316.107 89.7797Z" fill="#CF8080"/>
<path d="M309.385 85.2743C309.385 86.8148 300.586 78.7657 297.561 79.3855C287.031 83.6241 288.877 85.8941 290.801 79.3855C292.176 75.6663 296.672 75.0058 298.342 75.0058C300.013 75.0058 309.385 83.7337 309.385 85.2743Z" fill="#CF8080"/>
<path d="M292.148 85.2013C294.033 87.3559 295.919 90.3184 292.148 87.6252C292.148 90.0491 286.492 97.6385 286.492 95.7048C286.492 93.7712 290.263 75.5057 292.148 80.6228C298.881 76.0444 294.572 77.391 292.148 85.2013Z" fill="#CF8080"/>
<path d="M302.921 115.096L312.078 119.416V129.387L307.499 130.447L302.921 130.717V115.096Z" fill="#CF8080"/>
<path d="M302.921 82.5081L311.539 81.9695V88.7025V105.4L302.921 82.5081Z" fill="#CF8080"/>
<path d="M303.941 79.6837L305.627 86.552L300.766 80.0071L303.941 79.6837Z" fill="#CF8080"/>
<path d="M293.225 84.124C293.285 85.3337 294.6 88.1638 294.303 88.1638C294.005 88.1638 291.34 85.4706 292.187 84.3933C292.187 83.3521 294.813 79.2762 295.111 79.2762C298.842 74.9671 292.917 77.9296 293.225 84.124Z" fill="#CF8080"/>
<path d="M332.816 122.676C332.816 123.529 331.525 123.214 330.93 123.214C330.392 123.214 329.161 122.027 329.161 121.432C329.161 120.837 330.182 121.701 330.777 121.701C331.372 121.701 332.816 122.081 332.816 122.676Z" fill="#F89FA3"/>
<path d="M334.701 122.406C336.162 122.128 338.016 123.283 337.663 123.484C337.168 124.893 333.668 125.049 333.042 123.95C332.416 122.852 332.194 121.799 332.546 121.598C332.898 121.398 334.075 121.308 334.701 122.406Z" fill="#F7ADA9"/>
<path d="M337.663 118.366C340.626 126.985 334.546 122.521 326.113 120.65C319.41 119.163 297.565 111.493 311.57 114.725C303.49 99.9121 299.15 92.5117 313.155 107.594C327.236 111.289 337.663 118.366 337.663 118.366Z" fill="#F7ADA9"/>
<path d="M320.405 114.615C339.779 115.604 331.447 119.734 306.939 114.079C303.707 109.231 301.481 103.107 296.057 92.7486C293.887 85.2153 289.177 80.6484 297.804 79.315C306.606 77.9544 309.683 114.068 320.405 114.615Z" fill="#F7ADA9"/>
<line x1="415.238" y1="186.02" x2="418.02" y2="179.762" stroke="#706F6F" stroke-width="3" stroke-linecap="round"/>
<path d="M310.462 69.8439C310.462 70.6835 309.03 73.391 308.656 73.391C308.282 73.391 308.656 71.6969 308.656 70.8574C308.656 70.0178 308.056 69.0838 308.43 69.0838C308.804 69.0838 310.462 69.0044 310.462 69.8439Z" fill="#F7ADA9"/>
<path d="M316.926 65.042C316.926 68.4631 314.606 71.2364 312.078 71.2364C309.549 71.2364 305.076 68.2739 305.884 66.6579C304.806 62.8874 306.153 57.501 312.078 58.5783C318.811 55.8851 316.926 58.309 316.926 65.042Z" fill="#F7ADA9"/>
<path d="M306.422 64.5034C306.422 65.5445 306.868 68.2738 306.422 68.2738C305.976 68.2738 303.729 65.0059 303.729 63.9647C303.729 62.9235 304.091 62.0795 304.537 62.0795C305.883 62.0795 306.422 63.4622 306.422 64.5034Z" fill="#F7ADA9"/>
<path d="M305.075 65.85L308.846 68.2738V72.1074V75.9701L304.5 76.5L305.075 65.85Z" fill="#F7ADA9"/>
<path d="M308.038 77.1614C308.038 78.0539 308.441 82.1881 307.769 81.7399C306.961 81.2013 301.305 77.6991 301.036 76.6218C304.268 77.1604 304.537 74.4682 306.153 75.0069C307.194 75.0069 310.193 75.2762 308.038 77.1614Z" fill="#F7ADA9"/>
<rect x="389.634" y="119.012" width="48.623" height="0.671987" transform="rotate(19.195 389.634 119.012)" fill="#259A6A"/>
<circle cx="27" cy="25" r="5" fill="white"/>
<circle cx="42" cy="25" r="5" fill="white"/>
<circle cx="57" cy="25" r="5" fill="white"/>
<ellipse cx="418.352" cy="182" rx="0.53951" ry="1.96373" transform="rotate(26.2252 418.352 182)" fill="#706F6F"/>
</svg>
