<svg width="870" height="427" viewBox="0 0 870 427" fill="none" xmlns="http://www.w3.org/2000/svg">
<rect x="71" y="14" width="574" height="352" fill="#CAE2F0"/>
<rect x="56" width="604" height="379" rx="11" fill="#C4C4C4"/>
<rect x="81" y="29" width="550" height="321" rx="31" fill="white"/>
<rect x="80" y="25" width="551" height="30" rx="15" fill="#3B97CB"/>
<rect x="80" y="40" width="551" height="25" fill="#3B97CB"/>
<rect x="103" y="97" width="105" height="105" rx="21" fill="#F4F4F4"/>
<rect x="314" y="97" width="105" height="105" rx="21" fill="#F4F4F4"/>
<rect x="306" y="230" width="105" height="105" rx="21" fill="#F4F4F4"/>
<rect x="103" y="230" width="112" height="105" rx="21" fill="#F4F4F4"/>
<path d="M138.411 126.695L178.163 129.624L181.511 179H136.319L138.411 126.695Z" fill="#CF8080"/>
<path d="M135.482 121.674L148.872 130.879L130.043 150.128L120 139.667L135.482 121.674Z" fill="#CF8080"/>
<path d="M181.929 122.511L197.411 139.248L188.206 150.128L163.518 128.369L181.929 122.511Z" fill="#CF8080"/>
<path d="M135.482 121.674L149.291 120L158.915 129.206L145.525 130.879L135.482 121.674Z" fill="#CF8080"/>
<path d="M158.934 129.206L168.558 120L181.929 122.511L173.579 135.064L158.934 129.206Z" fill="#CF8080"/>
<circle cx="367.548" cy="150.452" r="28.4516" fill="#C76D3D"/>
<circle cx="364.452" cy="150.452" r="28.4516" fill="#D67F4F"/>
<path d="M361.677 128.968H365.806V135.734L359.698 133.602L361.677 128.968Z" fill="#8E4D29"/>
<path d="M360.476 128.968H364.702V135.378L358.452 133.358L360.476 128.968Z" fill="#9D552E"/>
<path d="M386.593 139.819L389.025 143.157L383.555 147.141L381.682 140.949L386.593 139.819Z" fill="#8E4D29"/>
<path d="M385.886 138.849L388.374 142.264L383.193 146.039L381.145 139.798L385.886 138.849Z" fill="#9D552E"/>
<path d="M346.513 141.355H349.565V146.356L345.05 144.78L346.513 141.355Z" fill="#8E4D29"/>
<path d="M345.626 141.355H348.749V146.093L344.129 144.6L345.626 141.355Z" fill="#9D552E"/>
<path d="M364.884 148.88L367.669 147.63L369.717 152.193L364.953 152.604L364.884 148.88Z" fill="#8E4D29"/>
<path d="M364.075 149.243L366.924 147.964L368.865 152.287L364.039 152.817L364.075 149.243Z" fill="#9D552E"/>
<path d="M367.783 171.378L364.956 172.529L363.07 167.897L367.845 167.654L367.783 171.378Z" fill="#8E4D29"/>
<path d="M368.604 171.043L365.712 172.221L363.925 167.833L368.767 167.473L368.604 171.043Z" fill="#9D552E"/>
<path d="M377.276 158.167L378.328 155.302L383.023 157.026L379.987 160.721L377.276 158.167Z" fill="#8E4D29"/>
<path d="M376.97 158.999L378.047 156.068L382.494 157.702L379.5 161.523L376.97 158.999Z" fill="#9D552E"/>
<path d="M348.611 157.226H352.864V164.194L346.574 161.998L348.611 157.226Z" fill="#8E4D29"/>
<path d="M347.375 157.226H351.727V163.827L345.29 161.747L347.375 157.226Z" fill="#9D552E"/>
<line x1="350.08" y1="134.254" x2="350.189" y2="134.243" stroke="#9D552E" stroke-width="4" stroke-linecap="round"/>
<line x1="379.499" y1="169.092" x2="379.608" y2="169.081" stroke="#9D552E" stroke-width="4" stroke-linecap="round"/>
<line x1="359.146" y1="161.562" x2="359.691" y2="161.951" stroke="#9D552E" stroke-width="4" stroke-linecap="round"/>
<circle cx="357.484" cy="142.71" r="0.967742" fill="#9D552E"/>
<circle cx="376.452" cy="133.419" r="0.967742" fill="#9D552E"/>
<circle cx="355.548" cy="171.742" r="0.967742" fill="#9D552E"/>
<circle cx="376.452" cy="149.29" r="0.967742" fill="#9D552E"/>
<circle cx="352.839" cy="169.806" r="0.967742" fill="#9D552E"/>
<rect x="354.65" y="246" width="21.6" height="10.8" fill="#5EA4E6"/>
<rect x="347" y="266.7" width="36" height="45.9" fill="#5EA4E6"/>
<path d="M354.796 255.45H376.121L383 266.7H347L354.796 255.45Z" fill="#5EA4E6"/>
<circle cx="353.3" cy="313.5" r="6.3" fill="#5EA4E6"/>
<circle cx="365.45" cy="313.5" r="6.3" fill="#5EA4E6"/>
<circle cx="376.7" cy="313.5" r="6.3" fill="#5EA4E6"/>
<path d="M369.5 286.525C369.5 289.991 366.679 292.8 363.2 292.8C359.721 292.8 356.9 289.991 356.9 286.525C356.9 283.06 362.114 273.038 363.2 272.1C364.359 272.965 369.5 283.06 369.5 286.525Z" fill="#C4C4C4"/>
<path d="M374 294.354C374 295.484 373.093 296.4 371.975 296.4C370.857 296.4 369.95 295.484 369.95 294.354C369.95 293.224 371.626 289.956 371.975 289.65C372.347 289.932 374 293.224 374 294.354Z" fill="#C4C4C4"/>
<rect x="215" y="120" width="52" height="14" fill="#DED9D9"/>
<line x1="215" y1="140.5" x2="285" y2="140.5" stroke="#DED9D9"/>
<line x1="215" y1="154.5" x2="285" y2="154.5" stroke="#DED9D9"/>
<line x1="215" y1="166.5" x2="285" y2="166.5" stroke="#DED9D9"/>
<line x1="215" y1="178.5" x2="285" y2="178.5" stroke="#DED9D9"/>
<rect x="221" y="255" width="52" height="14" fill="#DED9D9"/>
<line x1="221" y1="275.5" x2="291" y2="275.5" stroke="#DED9D9"/>
<line x1="221" y1="289.5" x2="291" y2="289.5" stroke="#DED9D9"/>
<line x1="221" y1="301.5" x2="291" y2="301.5" stroke="#DED9D9"/>
<line x1="221" y1="313.5" x2="291" y2="313.5" stroke="#DED9D9"/>
<rect x="431" y="116" width="52" height="14" fill="#DED9D9"/>
<line x1="431" y1="136.5" x2="501" y2="136.5" stroke="#DED9D9"/>
<line x1="431" y1="150.5" x2="501" y2="150.5" stroke="#DED9D9"/>
<line x1="431" y1="162.5" x2="501" y2="162.5" stroke="#DED9D9"/>
<line x1="431" y1="174.5" x2="501" y2="174.5" stroke="#DED9D9"/>
<rect x="419" y="260" width="52" height="14" fill="#DED9D9"/>
<line x1="419" y1="280.5" x2="489" y2="280.5" stroke="#DED9D9"/>
<line x1="419" y1="294.5" x2="489" y2="294.5" stroke="#DED9D9"/>
<line x1="419" y1="306.5" x2="489" y2="306.5" stroke="#DED9D9"/>
<line x1="419" y1="318.5" x2="489" y2="318.5" stroke="#DED9D9"/>
<circle cx="261.5" cy="374.5" r="52.5" fill="#FAF3DD"/>
<circle cx="44" cy="111" r="44" fill="#C8D5B9"/>
<circle cx="431.5" cy="217.5" r="44.5" fill="#8FC0A9"/>
<path d="M194.338 282.436C194.338 287.594 191.867 292.562 187.42 296.342C182.974 300.122 176.881 302.435 170.365 302.816C163.849 303.197 157.391 301.619 152.288 298.397C147.184 295.176 143.813 290.55 142.849 285.448C141.886 280.346 143.403 275.145 147.095 270.889C150.787 266.633 156.381 263.636 162.755 262.501C169.129 261.366 175.811 262.175 181.46 264.768C187.109 267.36 191.308 271.543 193.213 276.477L168.452 282.436H194.338Z" fill="#2C4D6B"/>
<path d="M149.861 283.111L125.26 301.977L124.408 265.411L149.861 283.111Z" fill="#2C4D6B"/>
<line x1="171.53" y1="268.458" x2="176.299" y2="273.227" stroke="white"/>
<line x1="176.282" y1="269.182" x2="171.513" y2="273.517" stroke="white"/>
<ellipse cx="649.417" cy="75.8606" rx="10.5" ry="6" transform="rotate(-48.997 649.417 75.8606)" fill="#C4C4C4"/>
<path d="M784 218L858.5 245L835.5 308L761 276L784 218Z" fill="#53B28B"/>
<path d="M784 200L870 229L864 248L779 218.5L784 200Z" fill="#57B18B"/>
<path d="M821.5 212.604L833.5 216.5L808.827 289.604L803.5 271.318L821.5 212.604Z" fill="#FFB53D"/>
<path d="M718 259.794L796.5 243.794L823.5 334.294L732 350.794L718 259.794Z" fill="#EA6364"/>
<path d="M735.44 264.777C722.94 229.277 762.104 212.007 770.789 255.966" stroke="#AF5B60" stroke-width="2"/>
<path d="M748.015 253.794C736.599 226.791 776.069 213.357 784 246.794" stroke="#AF5B60" stroke-width="2"/>
<circle cx="735.5" cy="265.294" r="2.5" fill="#AF5B60"/>
<circle cx="771.5" cy="256.294" r="2.5" fill="#AF5B60"/>
<path d="M786.5 245.794L797 243.794L823.5 334.294L803.5 337.794L786.5 245.794Z" fill="#D65152"/>
<path d="M810 325.794L823.5 334.294L803.5 337.794L810 325.794Z" fill="#A63D44"/>
<line x1="3" y1="-3" x2="173.739" y2="-3" transform="matrix(0.998403 0.056483 -0.0558413 0.99844 683 247.948)" stroke="#0D136F" stroke-width="6" stroke-linecap="round"/>
<line x1="1.5" y1="-1.5" x2="99.7316" y2="-1.5" transform="matrix(0.0754366 0.997151 -0.997085 0.0763012 722.703 247.948)" stroke="#0D136F" stroke-width="3" stroke-linecap="round"/>
<line x1="701.726" y1="245.233" x2="718.87" y2="348.217" stroke="#0D136F" stroke-width="3" stroke-linecap="round"/>
<line x1="3" y1="-3" x2="48.1887" y2="-3" transform="matrix(0.301629 -0.953425 0.952421 0.304785 696.234 401.017)" stroke="#0D136F" stroke-width="6" stroke-linecap="round"/>
<line x1="3" y1="-3" x2="125.754" y2="-3" transform="matrix(0.985045 -0.172297 0.170391 0.985377 706.16 357.759)" stroke="#0D136F" stroke-width="6" stroke-linecap="round"/>
<line x1="1.5" y1="-1.5" x2="122.244" y2="-1.5" transform="matrix(0.980363 -0.1972 0.195038 0.980796 706.16 367.741)" stroke="#0D136F" stroke-width="3" stroke-linecap="round"/>
<line x1="1.5" y1="-1.5" x2="7.97031" y2="-1.5" transform="matrix(0.349363 -0.936988 0.935665 0.352891 827.474 343.339)" stroke="#0D136F" stroke-width="3" stroke-linecap="round"/>
<line x1="1.5" y1="-1.5" x2="98.3824" y2="-1.5" transform="matrix(0.0331247 0.999451 -0.999439 0.0335061 742.554 247.948)" stroke="#0D136F" stroke-width="3" stroke-linecap="round"/>
<line x1="1.5" y1="-1.5" x2="93.1935" y2="-1.5" transform="matrix(-0.0931728 0.99565 -0.99555 -0.0942373 780.052 250.167)" stroke="#0D136F" stroke-width="3" stroke-linecap="round"/>
<line x1="1.5" y1="-1.5" x2="89.6618" y2="-1.5" transform="matrix(-0.169369 0.985553 -0.985225 -0.171264 801.006 249.057)" stroke="#0D136F" stroke-width="3" stroke-linecap="round"/>
<line x1="1.5" y1="-1.5" x2="85.9416" y2="-1.5" transform="matrix(-0.214412 0.976743 -0.976223 -0.216768 819.754 252.385)" stroke="#0D136F" stroke-width="3" stroke-linecap="round"/>
<line x1="1.5" y1="-1.5" x2="84.5641" y2="-1.5" transform="matrix(-0.256287 0.966601 -0.965865 -0.259044 836.297 254.603)" stroke="#0D136F" stroke-width="3" stroke-linecap="round"/>
<line x1="1.5" y1="-1.5" x2="93.9163" y2="-1.5" transform="matrix(-0.0231167 0.999733 -0.999727 -0.0233831 761.303 247.948)" stroke="#0D136F" stroke-width="3" stroke-linecap="round"/>
<line x1="3" y1="-3" x2="131.567" y2="-3" transform="matrix(0.999852 -0.0171897 0.0169939 0.999856 690.72 401.017)" stroke="#0D136F" stroke-width="6" stroke-linecap="round" stroke-linejoin="round"/>
<line x1="831.074" y1="331.788" x2="855.643" y2="256.955" stroke="#0D136F" stroke-width="6" stroke-linecap="round"/>
<ellipse cx="793.837" cy="398.244" rx="12.6829" ry="12.7557" fill="#C4C4C4"/>
<ellipse cx="793.837" cy="398.244" rx="8.27143" ry="8.31896" fill="white"/>
<ellipse cx="717.74" cy="397.135" rx="12.6829" ry="12.7557" fill="#C4C4C4"/>
<ellipse cx="717.74" cy="397.135" rx="8.27143" ry="8.31896" fill="white"/>
<path d="M622.564 332.5C620.437 370.5 620.889 379 614.564 375.5C605.389 378.5 602.952 377.5 601 332.5C601 317.036 601.111 215 617 236.5C637 204.5 622.564 317.036 622.564 332.5Z" fill="#0B146F"/>
<path d="M596 278L611 231.5L616 287L601.5 297L596 278Z" fill="#0B146F"/>
<path d="M627 252C627 256.971 615 259.496 621.653 256.506C616.959 256.506 601.5 265.971 601.5 261C601.5 256.029 584.5 222 608.5 231C627.5 231 629 214.5 627 252Z" fill="#0B146F"/>
<path d="M606.917 375.5H618.5L617.917 381.5L606.917 380.577V375.5Z" fill="#F7ADA9"/>
<path d="M618 381C618 382.105 614.5 384 612 384C610 384 607 381.605 607 380.5C607 379.395 610.895 381 612 381C613.105 381 618 379.895 618 381Z" fill="#F7ADA9"/>
<path d="M642.725 397.239C642.725 401.672 630.27 399.436 622.156 399.436C614.042 399.436 602.077 402.375 603.057 392.524C603.35 389.568 604.036 377.309 612.851 383.939C630.971 379.506 645.173 394.283 642.725 397.239Z" fill="white"/>
<path d="M643 396C643 400.5 630.284 398.23 622 398.23C613.716 398.23 601.5 401.214 602.5 391.214C602.8 388.214 603.5 375.77 612.5 382.5C631 378 645.5 393 643 396Z" fill="#5E628C"/>
<path d="M568.946 261.553C556.646 345.107 573 311 571.5 296C578.404 296 571.179 357.053 601.5 268.5C609.556 239.5 622.946 188.607 581.247 222.553C574.343 222.553 568.946 249.679 568.946 261.553Z" fill="#082777"/>
<path d="M568 328.556C545 357.556 534 372.056 545.5 356.556C541.634 356.556 528 363.736 528 356.556C528 349.377 556.134 307.056 560 307.056C581 291.556 604.5 298.056 568 328.556Z" fill="#082777"/>
<ellipse cx="575.5" cy="301.556" rx="6" ry="8.5" fill="#082777"/>
<path d="M635.006 217.447C634.006 224.947 634.043 228.447 631.006 228.447C627.968 228.447 623.006 221.865 623.006 217.447C623.006 213.028 611.5 188.5 626 206.5C629 207.5 635.006 207.447 635.006 217.447Z" fill="#C4C4C4"/>
<rect x="523" y="350" width="28" height="19" fill="#C4C4C4"/>
<path d="M627.5 149.5C626.527 150.022 623.5 146.5 622 145C612.5 136.5 623.409 142.696 624.382 142.173C625.355 141.651 627 135 628 143.5C628.27 145.792 628.432 149 627.5 149.5Z" fill="#F7ADA9"/>
<path d="M635.33 217.463C634.33 224.963 634.367 228.463 631.33 228.463C628.292 228.463 623.33 221.882 623.33 217.463C623.33 213.045 601 170 626.324 206.517C629.324 207.517 635.33 207.463 635.33 217.463Z" fill="#EF9034"/>
<path d="M706.904 352.222L680.778 218" stroke="#0D136F" stroke-width="6" stroke-linecap="round"/>
<path d="M685 219.372C685 222.41 683.261 226.5 680.5 226.5C677.739 226.5 674.076 222.41 674.076 219.372C674.076 216.335 673.739 213 676.5 213C679.261 213 686.424 216.5 685 219.372Z" fill="#F7ADA9"/>
<rect x="612" y="145" width="8" height="9" fill="#EF9034"/>
<rect x="634" y="183" width="8" height="15" fill="#F89FA3"/>
<path d="M642 183C641.955 183.827 639.657 186 638 186C636.343 186 635 185.328 635 184.5C635.5 185.329 631 181.5 638 181.5C639.657 181.5 643 164.5 642 183Z" fill="#F89FA3"/>
<path d="M632.352 231.419C632.352 243.293 612.311 238.685 596.811 236.685C576.811 230.185 575.43 233.185 577.93 224.185C579.43 211.685 592.214 137.685 599.311 146.685C592.311 145.185 633.5 218.5 632.352 231.419Z" fill="#EF9034"/>
<path d="M642.481 162.928C642.481 175.631 640.904 182.928 634 182.928C627.096 182.928 635.55 170.938 626.55 155.938C631.05 141.438 623.596 137.428 630.5 137.428C637.404 137.428 642.481 150.225 642.481 162.928Z" fill="#EF9034"/>
<path d="M598 154.428C601.5 158.428 605 163.928 598 158.928C598 163.428 587.5 177.518 587.5 173.928C587.5 170.338 594.5 136.428 598 145.928C610.5 137.428 602.5 139.928 598 154.428Z" fill="#EF9034"/>
<path d="M618 209.928L635 217.949V236.46L626.5 238.428L618 238.928V209.928Z" fill="#EF9034"/>
<path d="M618 149.428L634 148.428V160.928V191.928L618 149.428Z" fill="#EF9034"/>
<path d="M619.894 144.185L623.025 156.936L614 144.785L619.894 144.185Z" fill="#EF9034"/>
<path d="M600 152.428C600.112 154.674 602.552 159.928 602 159.928C601.448 159.928 596.5 154.928 598.072 152.928C598.072 150.995 602.948 143.428 603.5 143.428C610.428 135.428 599.428 140.928 600 152.428Z" fill="#EF9034"/>
<path d="M630 154.564C630 157.424 613.665 142.48 608.05 143.631C588.5 151.5 591.927 155.714 595.5 143.631C598.052 136.726 606.399 135.5 609.5 135.5C612.601 135.5 630 151.703 630 154.564Z" fill="#EF9034"/>
<path d="M673.5 224C673.5 225.585 671.105 225 670 225C669 225 666.715 222.796 666.715 221.691C666.715 220.587 668.611 222.191 669.715 222.191C670.82 222.191 673.5 222.895 673.5 224Z" fill="#F89FA3"/>
<path d="M677 223.5C679.712 222.983 683.154 225.127 682.5 225.5C681.58 228.116 675.082 228.406 673.92 226.367C672.758 224.328 672.346 222.373 673 222C673.654 221.627 675.838 221.461 677 223.5Z" fill="#F7ADA9"/>
<path d="M682.5 216C688 232 676.713 223.713 661.057 220.239C648.613 217.478 608.057 203.239 634.057 209.239C619.057 181.739 611 168 637 196C663.141 202.861 682.5 216 682.5 216Z" fill="#F7ADA9"/>
<path d="M650.46 209.035C686.428 210.872 670.96 218.54 625.46 208.04C619.46 199.04 615.326 187.67 605.257 168.44C601.229 154.454 592.484 145.976 608.5 143.5C624.841 140.974 630.554 208.019 650.46 209.035Z" fill="#F7ADA9"/>
<path d="M577.733 121.702C570.733 118.702 571.233 137.202 571.233 137.202" stroke="#0B1470"/>
<path d="M611.216 115.919C611.216 120.614 604.448 123.702 596.716 123.702C563.827 159.186 566.716 123.702 573.751 117.695C582.216 110.469 589.484 106.404 597.216 106.404C622.716 82.4628 611.216 111.225 611.216 115.919Z" fill="#0B1271"/>
<path d="M598.441 141.005C597.233 140.505 588.941 167.005 588.941 167.005C584.941 166.505 579.233 162.842 579.233 154.005C579.233 145.169 586.007 128.702 588.216 128.702C589.995 125.702 621.441 109.005 598.441 141.005Z" fill="#0B1271"/>
<path d="M625.526 124.239C625.526 126.446 626.055 144.916 621.769 142.068C625.526 143.566 609.435 139.072 603.537 137.074C561.711 163.041 614.649 110.258 619.091 110.258C624.83 112.754 622.171 119.021 625.526 124.239Z" fill="#0B1271"/>
<path d="M581.716 131.202C577.216 134.702 574.27 147.469 575.784 151.005C570.233 147.469 571.216 144.428 569.716 138.202C567.699 129.83 570.178 122.934 574.216 130.005C576.446 130.005 591.81 132.212 581.716 131.202Z" fill="#0B1271"/>
<path d="M635.733 103.005C633.733 106.005 624.733 110.005 622.733 109.505C619.255 111.505 620.733 124.005 618.233 116.505C618.233 114.572 621.591 100.505 625.733 100.505C629.875 100.505 636.733 100.505 635.733 103.005Z" fill="#0B1271"/>
<path d="M649.269 93.6064C650.769 107.606 623.269 106.606 621.269 99.1064C616.769 125.106 575.216 165.202 582.716 139.702C584.813 132.571 590.5 106.971 618.5 86.471C629.5 79.971 648.105 82.7396 649.269 93.6064Z" fill="#0B1470"/>
<ellipse cx="617.202" cy="103.702" rx="4.28658" ry="7.40363" transform="rotate(36.5723 617.202 103.702)" fill="#0B1271"/>
<path d="M627.485 101.203C623.755 104.489 625.549 110.975 624.947 110.292C623.03 120.307 614.568 119.589 617.8 105.25C618.677 101.36 636.456 90.0672 641.074 93.9601C641.676 94.643 635.095 100.673 627.485 101.203Z" fill="#0D136F"/>
<rect x="624.233" y="110.202" width="4.15225" height="2.08517" transform="rotate(122.751 624.233 110.202)" fill="#0D136F"/>
<ellipse cx="639.733" cy="103.224" rx="8.56263" ry="1.73862" transform="rotate(-24.8632 639.733 103.224)" fill="#0D136F"/>
<path d="M649.233 94.2016C649.733 95.2016 648.945 102.031 645.227 105.216C641.509 108.402 637.936 110.332 637.247 109.527C636.558 108.723 639.013 105.489 642.731 102.303C646.45 99.1179 645.733 92.2016 649.233 94.2016Z" fill="#0D136F"/>
<path d="M632.5 125.917C632.5 127.475 629.841 132.502 629.147 132.502C628.453 132.502 629.147 129.357 629.147 127.798C629.147 126.24 628.034 124.506 628.728 124.506C629.422 124.506 632.5 124.358 632.5 125.917Z" fill="#F7ADA9"/>
<path d="M644.5 117.002C644.5 123.353 640.194 128.502 635.5 128.502C630.806 128.502 622.5 123.002 624 120.002C622 113.002 624.5 103.002 635.5 105.002C648 100.002 644.5 104.502 644.5 117.002Z" fill="#F7ADA9"/>
<path d="M625 116.002C625 117.935 625.828 123.002 625 123.002C624.172 123.002 620 116.935 620 115.002C620 113.069 620.672 111.502 621.5 111.502C624 111.502 625 114.069 625 116.002Z" fill="#F7ADA9"/>
<path d="M622.5 118.502L629.5 123.002V137.502L622 139.002L622.5 118.502Z" fill="#F7ADA9"/>
<path d="M628 139.502C628 141.159 628.748 148.834 627.5 148.002C626 147.002 615.5 140.5 615 138.5C621 139.5 621.5 134.502 624.5 135.502C626.433 135.502 632 136.002 628 139.502Z" fill="#F7ADA9"/>
</svg>
