<svg width="14" height="14" viewBox="0 0 78 79" fill="none" xmlns="http://www.w3.org/2000/svg">
<path d="M12.5 40C16 90 111.5 48.5 39 78C17 78 0 60.0908 0 37.9994C0 15.908 17.9086 0 40 0C77.5 4 10.026 4.65698 12.5 40Z" fill="#E26E2D"/>
<path d="M71 21.5004C59.5 32 60.5 13.5 40 12.4804C24 11.0004 12 30.5004 26 7.48039C26 4.16668 39.2011 0.980389 45 0.980389C50.5 -1.49958 75 13.4998 71 21.5004Z" fill="#E26E2D"/>
<path d="M65.5001 66.0001C62.5001 72.5 49.5001 76.0001 47.0001 76.9997C28.5001 81.4997 36.1343 70.4081 36.1343 69.3035C26.1344 58.8022 31.5001 68.5012 49.0001 63.0012C64.5001 55.5003 49.5001 57 65.5001 66.0001Z" fill="#E26E2D"/>
<path d="M60.5 60.4996C61.8373 62.1714 67 66.4995 65 65.9995C63 68.4995 57.8149 64.1171 56.9913 62.5863C56.1677 61.0555 55.5686 59.0011 56.5 58.5C57.4314 57.9989 58.5 57.9995 60.5 60.4996Z" fill="#E26E2D"/>
<path d="M77.5 18.5C77.5 25.9558 79.0265 32.6029 74.5 32.5C52.5 32 50 34.5 49 27.5C69.5 7 71 4 74.5 4C78 6 78 3.5 77.5 18.5Z" fill="#E26E2D"/>
</svg>
