<svg width="33" height="44" viewBox="0 8 33 44" fill="none" xmlns="http://www.w3.org/2000/svg">
<path d="M30.3948 29.9605L10.932 33.102L7.81579 16.5" stroke="#DA6950" stroke-width="1.5" stroke-linecap="round" stroke-linejoin="round"/>
<path d="M9.33551 20.1908L32.1316 20.1908" stroke="#DA6950" stroke-width="1.5" stroke-linecap="round" stroke-linejoin="round"/>
<path d="M13.0263 34.7368H28.6579" stroke="#DA6950" stroke-width="1.5" stroke-linecap="round" stroke-linejoin="round"/>
<path d="M18.2368 13.8947V19.9737" stroke="#DA6950" stroke-width="1.5" stroke-linecap="round" stroke-linejoin="round"/>
<path d="M23.4474 13.8947V19.9737" stroke="#DA6950" stroke-width="1.5" stroke-linecap="round" stroke-linejoin="round"/>
<path d="M30.3947 17.3684L27.7895 19.9737" stroke="#DA6950" stroke-width="1.5" stroke-linecap="round" stroke-linejoin="round"/>
<path d="M26.0526 14.7632L23.4474 17.3684" stroke="#DA6950" stroke-width="1.5" stroke-linecap="round" stroke-linejoin="round"/>
<path d="M10.4211 18.2368L13.0263 19.9737" stroke="#DA6950" stroke-width="1.5" stroke-linecap="round" stroke-linejoin="round"/>
<path d="M23.4474 13.8947H18.2368" stroke="#DA6950" stroke-width="1.5" stroke-linecap="round" stroke-linejoin="round"/>
<path d="M10.4211 18.2368L14.329 14.329L19.1053 19.9737" stroke="#DA6950" stroke-width="1.5" stroke-linecap="round" stroke-linejoin="round"/>
<line x1="30.6467" y1="29.5316" x2="32.1369" y2="20.5902" stroke="#DA6950" stroke-width="1.5" stroke-linecap="round" stroke-linejoin="round"/>
<path d="M3.47369 16.5H7.8158" stroke="#DA6950" stroke-width="1.5" stroke-linecap="round" stroke-linejoin="round"/>
<circle cx="14.329" cy="40.3816" r="2.28947" stroke="#DA6950" stroke-width="1.5"/>
<circle cx="14.329" cy="40.3816" r="2.28947" stroke="#DA6950" stroke-width="1.5"/>
<circle cx="25.6184" cy="40.3816" r="2.28947" stroke="#DA6950" stroke-width="1.5"/>
<path d="M25.7167 14.0926C25.3464 14.2781 25.1965 14.7287 25.382 15.099C25.5675 15.4694 26.0182 15.6192 26.3885 15.4337L25.7167 14.0926ZM29.6447 17.3684C29.6447 17.7826 29.9805 18.1184 30.3947 18.1184C30.8089 18.1184 31.1447 17.7826 31.1447 17.3684L29.6447 17.3684ZM26.3885 15.4337C27.2981 14.9781 27.9261 14.8445 28.3432 14.8569C28.729 14.8685 28.9547 15.0034 29.1159 15.1848C29.2984 15.3902 29.4385 15.7049 29.5284 16.1159C29.6169 16.5206 29.6447 16.9628 29.6447 17.3684L31.1447 17.3684C31.1447 16.9057 31.1141 16.3454 30.9938 15.7955C30.8749 15.252 30.6561 14.66 30.2373 14.1886C29.7972 13.6932 29.1796 13.3812 28.388 13.3576C27.6278 13.3349 26.7444 13.5778 25.7167 14.0926L26.3885 15.4337Z" fill="#DA6950"/>
<path d="M11.5204 33.7329C11.693 34.6141 12.1345 34.7023 13.0263 34.7368" stroke="#DA6950" stroke-width="1.5" stroke-linecap="round" stroke-linejoin="round"/>
</svg>
